0
SECTION
2
HEADER
0
ENDSEC
0
SECTION
2
ENTITIES
0
3DFACE
8
minecraft:redstone_wire
10
0
20
4
30
14
11
1.0
21
4
31
14
12
1.0
22
4
32
15.0
13
0
23
4
33
15.0
0
3DFACE
8
minecraft:redstone_wire
10
0
20
4
30
13
11
1.0
21
4
31
13
12
1.0
22
4
32
14.0
13
0
23
4
33
14.0
0
3DFACE
8
minecraft:redstone_wire
10
1
20
4
30
14
11
2.0
21
4
31
14
12
2.0
22
4
32
15.0
13
1
23
4
33
15.0
0
3DFACE
8
minecraft:redstone_wire
10
1
20
4
30
13
11
2.0
21
4
31
13
12
2.0
22
4
32
14.0
13
1
23
4
33
14.0
0
3DFACE
8
minecraft:redstone_wire
10
2
20
4
30
14
11
3.0
21
4
31
14
12
3.0
22
4
32
15.0
13
2
23
4
33
15.0
0
3DFACE
8
minecraft:redstone_wire
10
2
20
4
30
13
11
3.0
21
4
31
13
12
3.0
22
4
32
14.0
13
2
23
4
33
14.0
0
3DFACE
8
minecraft:redstone_wire
10
3
20
4
30
14
11
4.0
21
4
31
14
12
4.0
22
4
32
15.0
13
3
23
4
33
15.0
0
3DFACE
8
minecraft:redstone_wire
10
3
20
4
30
13
11
4.0
21
4
31
13
12
4.0
22
4
32
14.0
13
3
23
4
33
14.0
0
3DFACE
8
minecraft:redstone_wire
10
4
20
4
30
14
11
5.0
21
4
31
14
12
5.0
22
4
32
15.0
13
4
23
4
33
15.0
0
3DFACE
8
minecraft:redstone_wire
10
4
20
4
30
13
11
5.0
21
4
31
13
12
5.0
22
4
32
14.0
13
4
23
4
33
14.0
0
3DFACE
8
minecraft:redstone_wire
10
5
20
4
30
14
11
6.0
21
4
31
14
12
6.0
22
4
32
15.0
13
5
23
4
33
15.0
0
3DFACE
8
minecraft:redstone_wire
10
5
20
4
30
13
11
6.0
21
4
31
13
12
6.0
22
4
32
14.0
13
5
23
4
33
14.0
0
3DFACE
8
minecraft:redstone_wire
10
6
20
4
30
14
11
7.0
21
4
31
14
12
7.0
22
4
32
15.0
13
6
23
4
33
15.0
0
3DFACE
8
minecraft:redstone_wire
10
6
20
4
30
13
11
7.0
21
4
31
13
12
7.0
22
4
32
14.0
13
6
23
4
33
14.0
0
3DFACE
8
minecraft:redstone_wire
10
7
20
4
30
14
11
8.0
21
4
31
14
12
8.0
22
4
32
15.0
13
7
23
4
33
15.0
0
3DFACE
8
minecraft:redstone_wire
10
7
20
4
30
13
11
8.0
21
4
31
13
12
8.0
22
4
32
14.0
13
7
23
4
33
14.0
0
3DFACE
8
minecraft:redstone_wire
10
8
20
4
30
14
11
9.0
21
4
31
14
12
9.0
22
4
32
15.0
13
8
23
4
33
15.0
0
3DFACE
8
minecraft:redstone_wire
10
8
20
4
30
13
11
9.0
21
4
31
13
12
9.0
22
4
32
14.0
13
8
23
4
33
14.0
0
3DFACE
8
minecraft:redstone_wire
10
9
20
4
30
14
11
10.0
21
4
31
14
12
10.0
22
4
32
15.0
13
9
23
4
33
15.0
0
3DFACE
8
minecraft:redstone_wire
10
9
20
4
30
13
11
10.0
21
4
31
13
12
10.0
22
4
32
14.0
13
9
23
4
33
14.0
0
3DFACE
8
minecraft:redstone_wire
10
10
20
4
30
14
11
11.0
21
4
31
14
12
11.0
22
4
32
15.0
13
10
23
4
33
15.0
0
3DFACE
8
minecraft:redstone_wire
10
10
20
4
30
13
11
11.0
21
4
31
13
12
11.0
22
4
32
14.0
13
10
23
4
33
14.0
0
3DFACE
8
minecraft:redstone_wire
10
11
20
4
30
14
11
12.0
21
4
31
14
12
12.0
22
4
32
15.0
13
11
23
4
33
15.0
0
3DFACE
8
minecraft:redstone_wire
10
11
20
4
30
13
11
12.0
21
4
31
13
12
12.0
22
4
32
14.0
13
11
23
4
33
14.0
0
3DFACE
8
minecraft:redstone_wire
10
12
20
4
30
14
11
13.0
21
4
31
14
12
13.0
22
4
32
15.0
13
12
23
4
33
15.0
0
3DFACE
8
minecraft:redstone_wire
10
12
20
4
30
13
11
13.0
21
4
31
13
12
13.0
22
4
32
14.0
13
12
23
4
33
14.0
0
3DFACE
8
minecraft:redstone_wire
10
13
20
4
30
14
11
14.0
21
4
31
14
12
14.0
22
4
32
15.0
13
13
23
4
33
15.0
0
3DFACE
8
minecraft:redstone_wire
10
13
20
4
30
13
11
14.0
21
4
31
13
12
14.0
22
4
32
14.0
13
13
23
4
33
14.0
0
3DFACE
8
minecraft:redstone_wire
10
14
20
4
30
14
11
15.0
21
4
31
14
12
15.0
22
4
32
15.0
13
14
23
4
33
15.0
0
3DFACE
8
minecraft:redstone_wire
10
14
20
4
30
13
11
15.0
21
4
31
13
12
15.0
22
4
32
14.0
13
14
23
4
33
14.0
0
3DFACE
8
minecraft:redstone_wire
10
15
20
4
30
14
11
16.0
21
4
31
14
12
16.0
22
4
32
15.0
13
15
23
4
33
15.0
0
3DFACE
8
minecraft:redstone_wire
10
15
20
4
30
13
11
16.0
21
4
31
13
12
16.0
22
4
32
14.0
13
15
23
4
33
14.0
0
3DFACE
8
minecraft:redstone_wire
10
16
20
4
30
14
11
17.0
21
4
31
14
12
17.0
22
4
32
15.0
13
16
23
4
33
15.0
0
3DFACE
8
minecraft:redstone_wire
10
16
20
4
30
13
11
17.0
21
4
31
13
12
17.0
22
4
32
14.0
13
16
23
4
33
14.0
0
3DFACE
8
minecraft:redstone_wire
10
17
20
4
30
14
11
18.0
21
4
31
14
12
18.0
22
4
32
15.0
13
17
23
4
33
15.0
0
3DFACE
8
minecraft:redstone_wire
10
17
20
4
30
13
11
18.0
21
4
31
13
12
18.0
22
4
32
14.0
13
17
23
4
33
14.0
0
3DFACE
8
minecraft:redstone_wire
10
18
20
4
30
14
11
19.0
21
4
31
14
12
19.0
22
4
32
15.0
13
18
23
4
33
15.0
0
3DFACE
8
minecraft:redstone_wire
10
18
20
4
30
13
11
19.0
21
4
31
13
12
19.0
22
4
32
14.0
13
18
23
4
33
14.0
0
3DFACE
8
minecraft:redstone_wire
10
19
20
4
30
14
11
20.0
21
4
31
14
12
20.0
22
4
32
15.0
13
19
23
4
33
15.0
0
3DFACE
8
minecraft:redstone_wire
10
19
20
4
30
13
11
20.0
21
4
31
13
12
20.0
22
4
32
14.0
13
19
23
4
33
14.0
0
3DFACE
8
minecraft:comparator
10
10
20
4
30
12
11
11.0
21
4
31
12
12
11.0
22
4
32
13.0
13
10
23
4
33
13.0
0
3DFACE
8
minecraft:stone
10
10
20
4
30
11
11
11.0
21
4
31
11
12
11.0
22
4
32
12.0
13
10
23
4
33
12.0
0
3DFACE
8
minecraft:redstone_wire
10
10
20
4
30
10
11
11.0
21
4
31
10
12
11.0
22
4
32
11.0
13
10
23
4
33
11.0
0
3DFACE
8
minecraft:redstone_wire
10
0
20
0
30
7
11
1.0
21
0
31
7
12
1.0
22
0
32
8.0
13
0
23
0
33
8.0
0
3DFACE
8
minecraft:redstone_wire
10
0
20
0
30
0
11
1.0
21
0
31
0
12
1.0
22
0
32
1.0
13
0
23
0
33
1.0
0
3DFACE
8
minecraft:redstone_wire
10
1
20
0
30
7
11
2.0
21
0
31
7
12
2.0
22
0
32
8.0
13
1
23
0
33
8.0
0
3DFACE
8
minecraft:redstone_wire
10
1
20
0
30
0
11
2.0
21
0
31
0
12
2.0
22
0
32
1.0
13
1
23
0
33
1.0
0
3DFACE
8
minecraft:redstone_wire
10
2
20
0
30
7
11
3.0
21
0
31
7
12
3.0
22
0
32
8.0
13
2
23
0
33
8.0
0
3DFACE
8
minecraft:redstone_wire
10
2
20
0
30
0
11
3.0
21
0
31
0
12
3.0
22
0
32
1.0
13
2
23
0
33
1.0
0
3DFACE
8
minecraft:redstone_wire
10
3
20
0
30
7
11
4.0
21
0
31
7
12
4.0
22
0
32
8.0
13
3
23
0
33
8.0
0
3DFACE
8
minecraft:redstone_wire
10
3
20
0
30
0
11
4.0
21
0
31
0
12
4.0
22
0
32
1.0
13
3
23
0
33
1.0
0
3DFACE
8
minecraft:redstone_wire
10
4
20
0
30
7
11
5.0
21
0
31
7
12
5.0
22
0
32
8.0
13
4
23
0
33
8.0
0
3DFACE
8
minecraft:redstone_wire
10
4
20
0
30
0
11
5.0
21
0
31
0
12
5.0
22
0
32
1.0
13
4
23
0
33
1.0
0
3DFACE
8
minecraft:redstone_wire
10
5
20
0
30
7
11
6.0
21
0
31
7
12
6.0
22
0
32
8.0
13
5
23
0
33
8.0
0
3DFACE
8
minecraft:redstone_wire
10
5
20
0
30
0
11
6.0
21
0
31
0
12
6.0
22
0
32
1.0
13
5
23
0
33
1.0
0
3DFACE
8
minecraft:redstone_wire
10
6
20
0
30
7
11
7.0
21
0
31
7
12
7.0
22
0
32
8.0
13
6
23
0
33
8.0
0
3DFACE
8
minecraft:redstone_wire
10
6
20
0
30
0
11
7.0
21
0
31
0
12
7.0
22
0
32
1.0
13
6
23
0
33
1.0
0
3DFACE
8
minecraft:redstone_wire
10
7
20
0
30
7
11
8.0
21
0
31
7
12
8.0
22
0
32
8.0
13
7
23
0
33
8.0
0
3DFACE
8
minecraft:redstone_wire
10
7
20
0
30
0
11
8.0
21
0
31
0
12
8.0
22
0
32
1.0
13
7
23
0
33
1.0
0
3DFACE
8
minecraft:sticky_piston
10
8
20
0
30
7
11
9.0
21
0
31
7
12
9.0
22
0
32
8.0
13
8
23
0
33
8.0
0
3DFACE
8
minecraft:sticky_piston
10
8
20
0
30
0
11
9.0
21
0
31
0
12
9.0
22
0
32
1.0
13
8
23
0
33
1.0
0
3DFACE
8
minecraft:redstone_wire
10
10
20
3
30
10
11
11.0
21
3
31
10
12
11.0
22
3
32
11.0
13
10
23
3
33
11.0
0
3DFACE
8
minecraft:redstone_wire
10
10
20
2
30
10
11
11.0
21
2
31
10
12
11.0
22
2
32
11.0
13
10
23
2
33
11.0
0
3DFACE
8
minecraft:redstone_wire
10
10
20
1
30
10
11
11.0
21
1
31
10
12
11.0
22
1
32
11.0
13
10
23
1
33
11.0
0
3DFACE
8
minecraft:redstone_wire
10
10
20
0
30
10
11
11.0
21
0
31
10
12
11.0
22
0
32
11.0
13
10
23
0
33
11.0
0
3DFACE
8
minecraft:redstone_wire
10
9
20
0
30
10
11
10.0
21
0
31
10
12
10.0
22
0
32
11.0
13
9
23
0
33
11.0
0
3DFACE
8
minecraft:redstone_wire
10
8
20
0
30
10
11
9.0
21
0
31
10
12
9.0
22
0
32
11.0
13
8
23
0
33
11.0
0
3DFACE
8
minecraft:redstone_wire
10
12
20
0
30
7
11
13.0
21
0
31
7
12
13.0
22
0
32
8.0
13
12
23
0
33
8.0
0
3DFACE
8
minecraft:redstone_wire
10
12
20
0
30
0
11
13.0
21
0
31
0
12
13.0
22
0
32
1.0
13
12
23
0
33
1.0
0
3DFACE
8
minecraft:redstone_wire
10
13
20
0
30
7
11
14.0
21
0
31
7
12
14.0
22
0
32
8.0
13
13
23
0
33
8.0
0
3DFACE
8
minecraft:redstone_wire
10
13
20
0
30
0
11
14.0
21
0
31
0
12
14.0
22
0
32
1.0
13
13
23
0
33
1.0
0
3DFACE
8
minecraft:redstone_wire
10
14
20
0
30
7
11
15.0
21
0
31
7
12
15.0
22
0
32
8.0
13
14
23
0
33
8.0
0
3DFACE
8
minecraft:redstone_wire
10
14
20
0
30
0
11
15.0
21
0
31
0
12
15.0
22
0
32
1.0
13
14
23
0
33
1.0
0
3DFACE
8
minecraft:redstone_wire
10
15
20
0
30
7
11
16.0
21
0
31
7
12
16.0
22
0
32
8.0
13
15
23
0
33
8.0
0
3DFACE
8
minecraft:redstone_wire
10
15
20
0
30
0
11
16.0
21
0
31
0
12
16.0
22
0
32
1.0
13
15
23
0
33
1.0
0
3DFACE
8
minecraft:redstone_wire
10
16
20
0
30
7
11
17.0
21
0
31
7
12
17.0
22
0
32
8.0
13
16
23
0
33
8.0
0
3DFACE
8
minecraft:redstone_wire
10
16
20
0
30
0
11
17.0
21
0
31
0
12
17.0
22
0
32
1.0
13
16
23
0
33
1.0
0
3DFACE
8
minecraft:redstone_wire
10
17
20
0
30
7
11
18.0
21
0
31
7
12
18.0
22
0
32
8.0
13
17
23
0
33
8.0
0
3DFACE
8
minecraft:redstone_wire
10
17
20
0
30
0
11
18.0
21
0
31
0
12
18.0
22
0
32
1.0
13
17
23
0
33
1.0
0
3DFACE
8
minecraft:redstone_wire
10
18
20
0
30
7
11
19.0
21
0
31
7
12
19.0
22
0
32
8.0
13
18
23
0
33
8.0
0
3DFACE
8
minecraft:redstone_wire
10
18
20
0
30
0
11
19.0
21
0
31
0
12
19.0
22
0
32
1.0
13
18
23
0
33
1.0
0
3DFACE
8
minecraft:redstone_wire
10
19
20
0
30
7
11
20.0
21
0
31
7
12
20.0
22
0
32
8.0
13
19
23
0
33
8.0
0
3DFACE
8
minecraft:redstone_wire
10
19
20
0
30
0
11
20.0
21
0
31
0
12
20.0
22
0
32
1.0
13
19
23
0
33
1.0
0
ENDSEC
0
EOF