0
SECTION
2
HEADER
0
ENDSEC
0
SECTION
2
ENTITIES
0
3DFACE
8
minecraft:redstone_wire
10
0
20
0
30
2
11
1.0
21
0
31
2
12
1.0
22
0
32
3.0
13
0
23
0
33
3.0
0
3DFACE
8
minecraft:redstone_wire
10
1
20
0
30
2
11
2.0
21
0
31
2
12
2.0
22
0
32
3.0
13
1
23
0
33
3.0
0
3DFACE
8
minecraft:redstone_wire
10
2
20
0
30
2
11
3.0
21
0
31
2
12
3.0
22
0
32
3.0
13
2
23
0
33
3.0
0
3DFACE
8
minecraft:redstone_wire
10
3
20
0
30
2
11
4.0
21
0
31
2
12
4.0
22
0
32
3.0
13
3
23
0
33
3.0
0
3DFACE
8
minecraft:redstone_wire
10
4
20
0
30
2
11
5.0
21
0
31
2
12
5.0
22
0
32
3.0
13
4
23
0
33
3.0
0
3DFACE
8
minecraft:redstone_wire
10
5
20
0
30
2
11
6.0
21
0
31
2
12
6.0
22
0
32
3.0
13
5
23
0
33
3.0
0
3DFACE
8
minecraft:redstone_wire
10
6
20
0
30
2
11
7.0
21
0
31
2
12
7.0
22
0
32
3.0
13
6
23
0
33
3.0
0
3DFACE
8
minecraft:redstone_wire
10
7
20
0
30
2
11
8.0
21
0
31
2
12
8.0
22
0
32
3.0
13
7
23
0
33
3.0
0
3DFACE
8
minecraft:redstone_wire
10
8
20
0
30
2
11
9.0
21
0
31
2
12
9.0
22
0
32
3.0
13
8
23
0
33
3.0
0
3DFACE
8
minecraft:redstone_wire
10
9
20
0
30
2
11
10.0
21
0
31
2
12
10.0
22
0
32
3.0
13
9
23
0
33
3.0
0
3DFACE
8
minecraft:comparator
10
0
20
0
30
1
11
1.0
21
0
31
1
12
1.0
22
0
32
2.0
13
0
23
0
33
2.0
0
3DFACE
8
minecraft:comparator
10
1
20
0
30
1
11
2.0
21
0
31
1
12
2.0
22
0
32
2.0
13
1
23
0
33
2.0
0
3DFACE
8
minecraft:comparator
10
2
20
0
30
1
11
3.0
21
0
31
1
12
3.0
22
0
32
2.0
13
2
23
0
33
2.0
0
3DFACE
8
minecraft:comparator
10
3
20
0
30
1
11
4.0
21
0
31
1
12
4.0
22
0
32
2.0
13
3
23
0
33
2.0
0
3DFACE
8
minecraft:comparator
10
4
20
0
30
1
11
5.0
21
0
31
1
12
5.0
22
0
32
2.0
13
4
23
0
33
2.0
0
3DFACE
8
minecraft:comparator
10
5
20
0
30
1
11
6.0
21
0
31
1
12
6.0
22
0
32
2.0
13
5
23
0
33
2.0
0
3DFACE
8
minecraft:comparator
10
6
20
0
30
1
11
7.0
21
0
31
1
12
7.0
22
0
32
2.0
13
6
23
0
33
2.0
0
3DFACE
8
minecraft:comparator
10
7
20
0
30
1
11
8.0
21
0
31
1
12
8.0
22
0
32
2.0
13
7
23
0
33
2.0
0
3DFACE
8
minecraft:comparator
10
8
20
0
30
1
11
9.0
21
0
31
1
12
9.0
22
0
32
2.0
13
8
23
0
33
2.0
0
3DFACE
8
minecraft:comparator
10
9
20
0
30
1
11
10.0
21
0
31
1
12
10.0
22
0
32
2.0
13
9
23
0
33
2.0
0
3DFACE
8
minecraft:redstone_wire
10
0
20
0
30
0
11
1.0
21
0
31
0
12
1.0
22
0
32
1.0
13
0
23
0
33
1.0
0
3DFACE
8
minecraft:redstone_wire
10
1
20
0
30
0
11
2.0
21
0
31
0
12
2.0
22
0
32
1.0
13
1
23
0
33
1.0
0
3DFACE
8
minecraft:redstone_wire
10
2
20
0
30
0
11
3.0
21
0
31
0
12
3.0
22
0
32
1.0
13
2
23
0
33
1.0
0
3DFACE
8
minecraft:stone
10
3
20
0
30
0
11
4.0
21
0
31
0
12
4.0
22
0
32
1.0
13
3
23
0
33
1.0
0
3DFACE
8
minecraft:redstone_torch
10
3
20
1
30
0
11
4.0
21
1
31
0
12
4.0
22
1
32
1.0
13
3
23
1
33
1.0
0
3DFACE
8
minecraft:redstone_wire
10
4
20
0
30
0
11
5.0
21
0
31
0
12
5.0
22
0
32
1.0
13
4
23
0
33
1.0
0
3DFACE
8
minecraft:redstone_wire
10
5
20
0
30
0
11
6.0
21
0
31
0
12
6.0
22
0
32
1.0
13
5
23
0
33
1.0
0
3DFACE
8
minecraft:redstone_wire
10
6
20
0
30
0
11
7.0
21
0
31
0
12
7.0
22
0
32
1.0
13
6
23
0
33
1.0
0
3DFACE
8
minecraft:redstone_wire
10
7
20
0
30
0
11
8.0
21
0
31
0
12
8.0
22
0
32
1.0
13
7
23
0
33
1.0
0
3DFACE
8
minecraft:redstone_wire
10
8
20
0
30
0
11
9.0
21
0
31
0
12
9.0
22
0
32
1.0
13
8
23
0
33
1.0
0
3DFACE
8
minecraft:redstone_wire
10
9
20
0
30
0
11
10.0
21
0
31
0
12
10.0
22
0
32
1.0
13
9
23
0
33
1.0
0
ENDSEC
0
EOF