0
SECTION
2
HEADER
0
ENDSEC
0
SECTION
2
ENTITIES
0
3DFACE
8
minecraft:hopper
10
10
20
0
30
10
11
11.0
21
0
31
10
12
11.0
22
0
32
11.0
13
10
23
0
33
11.0
0
3DFACE
8
minecraft:comparator
10
10
20
0
30
11
11
11.0
21
0
31
11
12
11.0
22
0
32
12.0
13
10
23
0
33
12.0
0
3DFACE
8
minecraft:hopper
10
12
20
0
30
10
11
13.0
21
0
31
10
12
13.0
22
0
32
11.0
13
12
23
0
33
11.0
0
3DFACE
8
minecraft:comparator
10
12
20
0
30
11
11
13.0
21
0
31
11
12
13.0
22
0
32
12.0
13
12
23
0
33
12.0
0
3DFACE
8
minecraft:hopper
10
14
20
0
30
10
11
15.0
21
0
31
10
12
15.0
22
0
32
11.0
13
14
23
0
33
11.0
0
3DFACE
8
minecraft:comparator
10
14
20
0
30
11
11
15.0
21
0
31
11
12
15.0
22
0
32
12.0
13
14
23
0
33
12.0
0
3DFACE
8
minecraft:hopper
10
16
20
0
30
10
11
17.0
21
0
31
10
12
17.0
22
0
32
11.0
13
16
23
0
33
11.0
0
3DFACE
8
minecraft:comparator
10
16
20
0
30
11
11
17.0
21
0
31
11
12
17.0
22
0
32
12.0
13
16
23
0
33
12.0
0
3DFACE
8
minecraft:hopper
10
16
20
0
30
12
11
17.0
21
0
31
12
12
17.0
22
0
32
13.0
13
16
23
0
33
13.0
0
3DFACE
8
minecraft:comparator
10
16
20
0
30
13
11
17.0
21
0
31
13
12
17.0
22
0
32
14.0
13
16
23
0
33
14.0
0
3DFACE
8
minecraft:hopper
10
16
20
0
30
14
11
17.0
21
0
31
14
12
17.0
22
0
32
15.0
13
16
23
0
33
15.0
0
3DFACE
8
minecraft:comparator
10
16
20
0
30
15
11
17.0
21
0
31
15
12
17.0
22
0
32
16.0
13
16
23
0
33
16.0
0
3DFACE
8
minecraft:hopper
10
16
20
0
30
16
11
17.0
21
0
31
16
12
17.0
22
0
32
17.0
13
16
23
0
33
17.0
0
3DFACE
8
minecraft:comparator
10
16
20
0
30
17
11
17.0
21
0
31
17
12
17.0
22
0
32
18.0
13
16
23
0
33
18.0
0
3DFACE
8
minecraft:hopper
10
16
20
0
30
18
11
17.0
21
0
31
18
12
17.0
22
0
32
19.0
13
16
23
0
33
19.0
0
3DFACE
8
minecraft:comparator
10
16
20
0
30
19
11
17.0
21
0
31
19
12
17.0
22
0
32
20.0
13
16
23
0
33
20.0
0
3DFACE
8
minecraft:hopper
10
14
20
0
30
18
11
15.0
21
0
31
18
12
15.0
22
0
32
19.0
13
14
23
0
33
19.0
0
3DFACE
8
minecraft:comparator
10
14
20
0
30
19
11
15.0
21
0
31
19
12
15.0
22
0
32
20.0
13
14
23
0
33
20.0
0
3DFACE
8
minecraft:hopper
10
12
20
0
30
18
11
13.0
21
0
31
18
12
13.0
22
0
32
19.0
13
12
23
0
33
19.0
0
3DFACE
8
minecraft:comparator
10
12
20
0
30
19
11
13.0
21
0
31
19
12
13.0
22
0
32
20.0
13
12
23
0
33
20.0
0
3DFACE
8
minecraft:hopper
10
10
20
0
30
18
11
11.0
21
0
31
18
12
11.0
22
0
32
19.0
13
10
23
0
33
19.0
0
3DFACE
8
minecraft:comparator
10
10
20
0
30
19
11
11.0
21
0
31
19
12
11.0
22
0
32
20.0
13
10
23
0
33
20.0
0
3DFACE
8
minecraft:hopper
10
10
20
0
30
16
11
11.0
21
0
31
16
12
11.0
22
0
32
17.0
13
10
23
0
33
17.0
0
3DFACE
8
minecraft:comparator
10
10
20
0
30
17
11
11.0
21
0
31
17
12
11.0
22
0
32
18.0
13
10
23
0
33
18.0
0
3DFACE
8
minecraft:hopper
10
10
20
0
30
14
11
11.0
21
0
31
14
12
11.0
22
0
32
15.0
13
10
23
0
33
15.0
0
3DFACE
8
minecraft:comparator
10
10
20
0
30
15
11
11.0
21
0
31
15
12
11.0
22
0
32
16.0
13
10
23
0
33
16.0
0
3DFACE
8
minecraft:hopper
10
10
20
0
30
12
11
11.0
21
0
31
12
12
11.0
22
0
32
13.0
13
10
23
0
33
13.0
0
3DFACE
8
minecraft:comparator
10
10
20
0
30
13
11
11.0
21
0
31
13
12
11.0
22
0
32
14.0
13
10
23
0
33
14.0
0
3DFACE
8
minecraft:hopper
10
12
20
0
30
14
11
13.0
21
0
31
14
12
13.0
22
0
32
15.0
13
12
23
0
33
15.0
0
3DFACE
8
minecraft:comparator
10
12
20
0
30
15
11
13.0
21
0
31
15
12
13.0
22
0
32
16.0
13
12
23
0
33
16.0
0
3DFACE
8
minecraft:hopper
10
14
20
0
30
14
11
15.0
21
0
31
14
12
15.0
22
0
32
15.0
13
14
23
0
33
15.0
0
3DFACE
8
minecraft:comparator
10
14
20
0
30
15
11
15.0
21
0
31
15
12
15.0
22
0
32
16.0
13
14
23
0
33
16.0
0
3DFACE
8
minecraft:chest
10
20
20
0
30
10
11
21.0
21
0
31
10
12
21.0
22
0
32
11.0
13
20
23
0
33
11.0
0
3DFACE
8
minecraft:comparator
10
21
20
0
30
10
11
22.0
21
0
31
10
12
22.0
22
0
32
11.0
13
21
23
0
33
11.0
0
3DFACE
8
minecraft:chest
10
22
20
0
30
10
11
23.0
21
0
31
10
12
23.0
22
0
32
11.0
13
22
23
0
33
11.0
0
3DFACE
8
minecraft:comparator
10
23
20
0
30
10
11
24.0
21
0
31
10
12
24.0
22
0
32
11.0
13
23
23
0
33
11.0
0
3DFACE
8
minecraft:chest
10
24
20
0
30
10
11
25.0
21
0
31
10
12
25.0
22
0
32
11.0
13
24
23
0
33
11.0
0
3DFACE
8
minecraft:comparator
10
25
20
0
30
10
11
26.0
21
0
31
10
12
26.0
22
0
32
11.0
13
25
23
0
33
11.0
0
3DFACE
8
minecraft:chest
10
26
20
0
30
10
11
27.0
21
0
31
10
12
27.0
22
0
32
11.0
13
26
23
0
33
11.0
0
3DFACE
8
minecraft:comparator
10
27
20
0
30
10
11
28.0
21
0
31
10
12
28.0
22
0
32
11.0
13
27
23
0
33
11.0
0
3DFACE
8
minecraft:chest
10
28
20
0
30
10
11
29.0
21
0
31
10
12
29.0
22
0
32
11.0
13
28
23
0
33
11.0
0
3DFACE
8
minecraft:comparator
10
29
20
0
30
10
11
30.0
21
0
31
10
12
30.0
22
0
32
11.0
13
29
23
0
33
11.0
0
3DFACE
8
minecraft:chest
10
30
20
0
30
10
11
31.0
21
0
31
10
12
31.0
22
0
32
11.0
13
30
23
0
33
11.0
0
3DFACE
8
minecraft:comparator
10
31
20
0
30
10
11
32.0
21
0
31
10
12
32.0
22
0
32
11.0
13
31
23
0
33
11.0
0
3DFACE
8
minecraft:chest
10
32
20
0
30
10
11
33.0
21
0
31
10
12
33.0
22
0
32
11.0
13
32
23
0
33
11.0
0
3DFACE
8
minecraft:comparator
10
33
20
0
30
10
11
34.0
21
0
31
10
12
34.0
22
0
32
11.0
13
33
23
0
33
11.0
0
3DFACE
8
minecraft:chest
10
34
20
0
30
10
11
35.0
21
0
31
10
12
35.0
22
0
32
11.0
13
34
23
0
33
11.0
0
3DFACE
8
minecraft:comparator
10
35
20
0
30
10
11
36.0
21
0
31
10
12
36.0
22
0
32
11.0
13
35
23
0
33
11.0
0
3DFACE
8
minecraft:chest
10
20
20
0
30
14
11
21.0
21
0
31
14
12
21.0
22
0
32
15.0
13
20
23
0
33
15.0
0
3DFACE
8
minecraft:comparator
10
21
20
0
30
14
11
22.0
21
0
31
14
12
22.0
22
0
32
15.0
13
21
23
0
33
15.0
0
3DFACE
8
minecraft:chest
10
22
20
0
30
14
11
23.0
21
0
31
14
12
23.0
22
0
32
15.0
13
22
23
0
33
15.0
0
3DFACE
8
minecraft:comparator
10
23
20
0
30
14
11
24.0
21
0
31
14
12
24.0
22
0
32
15.0
13
23
23
0
33
15.0
0
3DFACE
8
minecraft:chest
10
24
20
0
30
14
11
25.0
21
0
31
14
12
25.0
22
0
32
15.0
13
24
23
0
33
15.0
0
3DFACE
8
minecraft:comparator
10
25
20
0
30
14
11
26.0
21
0
31
14
12
26.0
22
0
32
15.0
13
25
23
0
33
15.0
0
3DFACE
8
minecraft:chest
10
26
20
0
30
14
11
27.0
21
0
31
14
12
27.0
22
0
32
15.0
13
26
23
0
33
15.0
0
3DFACE
8
minecraft:comparator
10
27
20
0
30
14
11
28.0
21
0
31
14
12
28.0
22
0
32
15.0
13
27
23
0
33
15.0
0
3DFACE
8
minecraft:chest
10
28
20
0
30
14
11
29.0
21
0
31
14
12
29.0
22
0
32
15.0
13
28
23
0
33
15.0
0
3DFACE
8
minecraft:comparator
10
29
20
0
30
14
11
30.0
21
0
31
14
12
30.0
22
0
32
15.0
13
29
23
0
33
15.0
0
3DFACE
8
minecraft:chest
10
30
20
0
30
14
11
31.0
21
0
31
14
12
31.0
22
0
32
15.0
13
30
23
0
33
15.0
0
3DFACE
8
minecraft:comparator
10
31
20
0
30
14
11
32.0
21
0
31
14
12
32.0
22
0
32
15.0
13
31
23
0
33
15.0
0
3DFACE
8
minecraft:chest
10
32
20
0
30
14
11
33.0
21
0
31
14
12
33.0
22
0
32
15.0
13
32
23
0
33
15.0
0
3DFACE
8
minecraft:comparator
10
33
20
0
30
14
11
34.0
21
0
31
14
12
34.0
22
0
32
15.0
13
33
23
0
33
15.0
0
3DFACE
8
minecraft:chest
10
34
20
0
30
14
11
35.0
21
0
31
14
12
35.0
22
0
32
15.0
13
34
23
0
33
15.0
0
3DFACE
8
minecraft:comparator
10
35
20
0
30
14
11
36.0
21
0
31
14
12
36.0
22
0
32
15.0
13
35
23
0
33
15.0
0
3DFACE
8
minecraft:redstone_wire
10
36
20
0
30
12
11
37.0
21
0
31
12
12
37.0
22
0
32
13.0
13
36
23
0
33
13.0
0
3DFACE
8
minecraft:redstone_wire
10
37
20
0
30
12
11
38.0
21
0
31
12
12
38.0
22
0
32
13.0
13
37
23
0
33
13.0
0
3DFACE
8
minecraft:redstone_wire
10
38
20
0
30
12
11
39.0
21
0
31
12
12
39.0
22
0
32
13.0
13
38
23
0
33
13.0
0
3DFACE
8
minecraft:redstone_wire
10
39
20
0
30
12
11
40.0
21
0
31
12
12
40.0
22
0
32
13.0
13
39
23
0
33
13.0
0
3DFACE
8
minecraft:redstone_wire
10
36
20
0
30
14
11
37.0
21
0
31
14
12
37.0
22
0
32
15.0
13
36
23
0
33
15.0
0
3DFACE
8
minecraft:redstone_wire
10
37
20
0
30
14
11
38.0
21
0
31
14
12
38.0
22
0
32
15.0
13
37
23
0
33
15.0
0
3DFACE
8
minecraft:redstone_wire
10
38
20
0
30
14
11
39.0
21
0
31
14
12
39.0
22
0
32
15.0
13
38
23
0
33
15.0
0
3DFACE
8
minecraft:redstone_wire
10
39
20
0
30
14
11
40.0
21
0
31
14
12
40.0
22
0
32
15.0
13
39
23
0
33
15.0
0
3DFACE
8
minecraft:redstone_lamp
10
40
20
1
30
12
11
41.0
21
1
31
12
12
41.0
22
1
32
13.0
13
40
23
1
33
13.0
0
3DFACE
8
minecraft:redstone_lamp
10
40
20
1
30
14
11
41.0
21
1
31
14
12
41.0
22
1
32
15.0
13
40
23
1
33
15.0
0
3DFACE
8
minecraft:redstone_lamp
10
41
20
1
30
12
11
42.0
21
1
31
12
12
42.0
22
1
32
13.0
13
41
23
1
33
13.0
0
3DFACE
8
minecraft:redstone_lamp
10
41
20
1
30
14
11
42.0
21
1
31
14
12
42.0
22
1
32
15.0
13
41
23
1
33
15.0
0
3DFACE
8
minecraft:redstone_lamp
10
42
20
1
30
12
11
43.0
21
1
31
12
12
43.0
22
1
32
13.0
13
42
23
1
33
13.0
0
3DFACE
8
minecraft:redstone_lamp
10
42
20
1
30
14
11
43.0
21
1
31
14
12
43.0
22
1
32
15.0
13
42
23
1
33
15.0
0
3DFACE
8
minecraft:redstone_lamp
10
43
20
1
30
12
11
44.0
21
1
31
12
12
44.0
22
1
32
13.0
13
43
23
1
33
13.0
0
3DFACE
8
minecraft:redstone_lamp
10
43
20
1
30
14
11
44.0
21
1
31
14
12
44.0
22
1
32
15.0
13
43
23
1
33
15.0
0
3DFACE
8
minecraft:redstone_lamp
10
44
20
1
30
12
11
45.0
21
1
31
12
12
45.0
22
1
32
13.0
13
44
23
1
33
13.0
0
3DFACE
8
minecraft:redstone_lamp
10
44
20
1
30
14
11
45.0
21
1
31
14
12
45.0
22
1
32
15.0
13
44
23
1
33
15.0
0
3DFACE
8
minecraft:redstone_lamp
10
45
20
1
30
12
11
46.0
21
1
31
12
12
46.0
22
1
32
13.0
13
45
23
1
33
13.0
0
3DFACE
8
minecraft:redstone_lamp
10
45
20
1
30
14
11
46.0
21
1
31
14
12
46.0
22
1
32
15.0
13
45
23
1
33
15.0
0
3DFACE
8
minecraft:redstone_lamp
10
46
20
1
30
12
11
47.0
21
1
31
12
12
47.0
22
1
32
13.0
13
46
23
1
33
13.0
0
3DFACE
8
minecraft:redstone_lamp
10
46
20
1
30
14
11
47.0
21
1
31
14
12
47.0
22
1
32
15.0
13
46
23
1
33
15.0
0
3DFACE
8
minecraft:redstone_lamp
10
47
20
1
30
12
11
48.0
21
1
31
12
12
48.0
22
1
32
13.0
13
47
23
1
33
13.0
0
3DFACE
8
minecraft:redstone_lamp
10
47
20
1
30
14
11
48.0
21
1
31
14
12
48.0
22
1
32
15.0
13
47
23
1
33
15.0
0
3DFACE
8
minecraft:redstone_lamp
10
48
20
1
30
12
11
49.0
21
1
31
12
12
49.0
22
1
32
13.0
13
48
23
1
33
13.0
0
3DFACE
8
minecraft:redstone_lamp
10
48
20
1
30
14
11
49.0
21
1
31
14
12
49.0
22
1
32
15.0
13
48
23
1
33
15.0
0
3DFACE
8
minecraft:redstone_lamp
10
49
20
1
30
12
11
50.0
21
1
31
12
12
50.0
22
1
32
13.0
13
49
23
1
33
13.0
0
3DFACE
8
minecraft:redstone_lamp
10
49
20
1
30
14
11
50.0
21
1
31
14
12
50.0
22
1
32
15.0
13
49
23
1
33
15.0
0
3DFACE
8
minecraft:redstone_lamp
10
50
20
1
30
12
11
51.0
21
1
31
12
12
51.0
22
1
32
13.0
13
50
23
1
33
13.0
0
3DFACE
8
minecraft:redstone_lamp
10
50
20
1
30
14
11
51.0
21
1
31
14
12
51.0
22
1
32
15.0
13
50
23
1
33
15.0
0
3DFACE
8
minecraft:redstone_lamp
10
51
20
1
30
12
11
52.0
21
1
31
12
12
52.0
22
1
32
13.0
13
51
23
1
33
13.0
0
3DFACE
8
minecraft:redstone_lamp
10
51
20
1
30
14
11
52.0
21
1
31
14
12
52.0
22
1
32
15.0
13
51
23
1
33
15.0
0
3DFACE
8
minecraft:redstone_lamp
10
52
20
1
30
12
11
53.0
21
1
31
12
12
53.0
22
1
32
13.0
13
52
23
1
33
13.0
0
3DFACE
8
minecraft:redstone_lamp
10
52
20
1
30
14
11
53.0
21
1
31
14
12
53.0
22
1
32
15.0
13
52
23
1
33
15.0
0
3DFACE
8
minecraft:redstone_lamp
10
53
20
1
30
12
11
54.0
21
1
31
12
12
54.0
22
1
32
13.0
13
53
23
1
33
13.0
0
3DFACE
8
minecraft:redstone_lamp
10
53
20
1
30
14
11
54.0
21
1
31
14
12
54.0
22
1
32
15.0
13
53
23
1
33
15.0
0
3DFACE
8
minecraft:redstone_lamp
10
54
20
1
30
12
11
55.0
21
1
31
12
12
55.0
22
1
32
13.0
13
54
23
1
33
13.0
0
3DFACE
8
minecraft:redstone_lamp
10
54
20
1
30
14
11
55.0
21
1
31
14
12
55.0
22
1
32
15.0
13
54
23
1
33
15.0
0
ENDSEC
0
EOF